<svg xmlns="http://www.w3.org/2000/svg" xmlns:xlink="http://www.w3.org/1999/xlink" width="512" zoomAndPan="magnify" viewBox="0 0 384 383.999986" height="512" preserveAspectRatio="xMidYMid meet" version="1.2"><g id="1066f49c04"><path style=" stroke:none;fill-rule:nonzero;fill:#2100c4;fill-opacity:1;" d="M 380.851562 291.164062 C 380.851562 310.972656 364.785156 327.039062 344.976562 327.039062 L 40.039062 327.039062 C 20.226562 327.039062 4.164062 310.972656 4.164062 291.164062 L 4.164062 93.851562 C 4.164062 74.039062 20.226562 57.976562 40.039062 57.976562 L 344.976562 57.976562 C 364.785156 57.976562 380.851562 74.039062 380.851562 93.851562 Z M 380.851562 291.164062 "/><path style=" stroke:none;fill-rule:nonzero;fill:#ffffff;fill-opacity:1;" d="M 113.457031 147.664062 L 89.902344 217.90625 C 89.902344 217.90625 83.921875 188.191406 83.328125 184.460938 C 69.921875 153.867188 50.136719 155.574219 50.136719 155.574219 L 73.453125 246.320312 L 73.453125 246.300781 L 101.804688 246.300781 L 141.007812 147.664062 Z M 135.90625 246.320312 L 161.652344 246.320312 L 177.222656 147.664062 L 151.152344 147.664062 Z M 318.140625 147.664062 L 291.046875 147.664062 L 248.804688 246.320312 L 274.382812 246.320312 L 279.65625 232.230469 L 311.90625 232.230469 L 314.652344 246.320312 L 338.085938 246.320312 Z M 286.792969 213.386719 L 300.8125 176.101562 L 308.148438 213.386719 Z M 213.753906 176.417969 C 213.753906 170.980469 218.21875 166.9375 231.027344 166.9375 C 239.351562 166.9375 248.882812 172.980469 248.882812 172.980469 L 253.0625 152.273438 C 253.0625 152.273438 240.882812 147.652344 228.929688 147.652344 C 201.851562 147.652344 187.886719 160.605469 187.886719 177 C 187.886719 206.648438 223.574219 202.585938 223.574219 217.816406 C 223.574219 220.425781 221.503906 226.460938 206.640625 226.460938 C 191.734375 226.460938 181.894531 221 181.894531 221 L 177.457031 240.875 C 177.457031 240.875 186.992188 246.308594 205.414062 246.308594 C 223.878906 246.308594 249.492188 232.496094 249.492188 212.660156 C 249.492188 188.792969 213.753906 187.070312 213.753906 176.417969 Z M 213.753906 176.417969 "/><path style=" stroke:none;fill-rule:nonzero;fill:#f5bc00;fill-opacity:1;" d="M 86.78125 200.980469 L 78.117188 158.398438 C 78.117188 158.398438 74.199219 149.167969 64.011719 149.167969 C 53.824219 149.167969 24.191406 149.167969 24.191406 149.167969 C 24.191406 149.167969 74.960938 164.164062 86.78125 200.980469 Z M 86.78125 200.980469 "/></g></svg>